<svg xmlns="http://www.w3.org/2000/svg" width="500" height="550" viewBox="0 0 20 22" preserveAspectRatio="xMidYMid slice"><style>.prefix__small{font:.7px Comic Sans MS}</style><defs><linearGradient id="prefix__background1"><stop stop-color="hsl(50, 70%, 50%)"/></linearGradient></defs><defs><linearGradient id="prefix__background2"><stop stop-color="hsl(260, 30%, 50%)"/></linearGradient></defs><defs><linearGradient id="prefix__background3"><stop stop-color="hsl(120, 30%, 50%)"/></linearGradient></defs><defs><linearGradient id="prefix__background4"><stop stop-color="hsl(360, 70%, 40%)"/></linearGradient></defs><defs><linearGradient id="prefix__background5"><stop stop-color="hsl(220, 50%, 50%)"/></linearGradient></defs><path fill="url(#prefix__background1)" d="M0 0h30v30H0z"/><path fill="url(#prefix__background2)" d="M0 0h1v1H0zM1 0h1v1H1zM2 0h1v1H2zM3 0h1v1H3zM4 0h1v1H4zM5 0h1v1H5zM6 0h1v1H6zM7 0h1v1H7zM8 0h1v1H8zM9 0h1v1H9zM10 0h1v1h-1zM11 0h1v1h-1zM12 0h1v1h-1zM13 0h1v1h-1zM14 0h1v1h-1zM15 0h1v1h-1zM16 0h1v1h-1zM17 0h1v1h-1zM18 0h1v1h-1zM19 0h1v1h-1zM0 1h1v1H0zM1 1h1v1H1zM2 1h1v1H2zM3 1h1v1H3zM4 1h1v1H4zM5 1h1v1H5zM6 1h1v1H6zM7 1h1v1H7zM8 1h1v1H8zM9 1h1v1H9zM10 1h1v1h-1z"/><path fill="hsl(0, 0%, 0%)" d="M11 1h1v1h-1zM12 1h1v1h-1z"/><path fill="url(#prefix__background2)" d="M13 1h1v1h-1zM14 1h1v1h-1zM15 1h1v1h-1zM16 1h1v1h-1zM17 1h1v1h-1zM18 1h1v1h-1zM19 1h1v1h-1zM0 2h1v1H0zM1 2h1v1H1zM2 2h1v1H2zM3 2h1v1H3zM4 2h1v1H4zM5 2h1v1H5zM6 2h1v1H6zM7 2h1v1H7zM8 2h1v1H8zM9 2h1v1H9z"/><path fill="hsl(0, 0%, 0%)" d="M10 2h1v1h-1z"/><path fill="url(#prefix__background4)" d="M11 2h1v1h-1zM12 2h1v1h-1z"/><path fill="hsl(0, 0%, 0%)" d="M13 2h1v1h-1z"/><path fill="url(#prefix__background2)" d="M14 2h1v1h-1zM15 2h1v1h-1zM16 2h1v1h-1zM17 2h1v1h-1zM18 2h1v1h-1zM19 2h1v1h-1zM0 3h1v1H0zM1 3h1v1H1zM2 3h1v1H2zM3 3h1v1H3zM4 3h1v1H4zM5 3h1v1H5zM6 3h1v1H6z"/><path fill="hsl(0, 0%, 0%)" d="M7 3h1v1H7zM8 3h1v1H8zM9 3h1v1H9zM10 3h1v1h-1zM11 3h1v1h-1z"/><path fill="url(#prefix__background4)" d="M12 3h1v1h-1z"/><path fill="hsl(0, 0%, 0%)" d="M13 3h1v1h-1z"/><path fill="url(#prefix__background2)" d="M14 3h1v1h-1zM15 3h1v1h-1zM16 3h1v1h-1zM17 3h1v1h-1zM18 3h1v1h-1zM19 3h1v1h-1zM0 4h1v1H0zM1 4h1v1H1zM2 4h1v1H2zM3 4h1v1H3zM4 4h1v1H4z"/><path fill="hsl(0, 0%, 0%)" d="M5 4h1v1H5zM6 4h1v1H6z"/><path fill="hsl(105, 69%, 30%)" d="M7 4h1v1H7zM8 4h1v1H8zM9 4h1v1H9zM10 4h1v1h-1zM11 4h1v1h-1z"/><path fill="hsl(0, 0%, 0%)" d="M12 4h1v1h-1zM13 4h1v1h-1z"/><path fill="url(#prefix__background2)" d="M14 4h1v1h-1z"/><path fill="hsl(0, 0%, 0%)" d="M15 4h1v1h-1zM16 4h1v1h-1z"/><path fill="url(#prefix__background2)" d="M17 4h1v1h-1zM18 4h1v1h-1zM19 4h1v1h-1zM0 5h1v1H0zM1 5h1v1H1zM2 5h1v1H2zM3 5h1v1H3z"/><path fill="hsl(0, 0%, 0%)" d="M4 5h1v1H4z"/><path fill="hsl(105, 69%, 30%)" d="M5 5h1v1H5zM6 5h1v1H6zM7 5h1v1H7zM8 5h1v1H8zM9 5h1v1H9zM10 5h1v1h-1zM11 5h1v1h-1zM12 5h1v1h-1zM13 5h1v1h-1z"/><path fill="hsl(0, 0%, 0%)" d="M14 5h1v1h-1z"/><path fill="url(#prefix__background4)" d="M15 5h1v1h-1zM16 5h1v1h-1z"/><path fill="hsl(0, 0%, 0%)" d="M17 5h1v1h-1z"/><path fill="url(#prefix__background2)" d="M18 5h1v1h-1zM19 5h1v1h-1zM0 6h1v1H0zM1 6h1v1H1zM2 6h1v1H2zM3 6h1v1H3z"/><path fill="hsl(0, 0%, 0%)" d="M4 6h1v1H4z"/><path fill="hsl(105, 69%, 30%)" d="M5 6h1v1H5z"/><path fill="hsl(0, 0%, 0%)" d="M6 6h1v1H6zM7 6h1v1H7z"/><path fill="hsl(105, 69%, 30%)" d="M8 6h1v1H8zM9 6h1v1H9zM10 6h1v1h-1z"/><path fill="hsl(0, 0%, 0%)" d="M11 6h1v1h-1zM12 6h1v1h-1z"/><path fill="hsl(105, 69%, 30%)" d="M13 6h1v1h-1z"/><path fill="hsl(0, 0%, 0%)" d="M14 6h1v1h-1z"/><path fill="url(#prefix__background4)" d="M15 6h1v1h-1zM16 6h1v1h-1z"/><path fill="hsl(0, 0%, 0%)" d="M17 6h1v1h-1z"/><path fill="url(#prefix__background2)" d="M18 6h1v1h-1zM19 6h1v1h-1zM0 7h1v1H0zM1 7h1v1H1zM2 7h1v1H2z"/><path fill="hsl(0, 0%, 0%)" d="M3 7h1v1H3z"/><path fill="hsl(105, 69%, 30%)" d="M4 7h1v1H4z"/><path fill="url(#prefix__background5)" d="M5 7h1v1H5z"/><path fill="hsl(0, 0%, 0%)" d="M6 7h1v1H6z"/><path fill="hsl(0, 0%, 60%)" d="M7 7h1v1H7z"/><path fill="hsl(105, 69%, 30%)" d="M8 7h1v1H8zM9 7h1v1H9z"/><path fill="url(#prefix__background5)" d="M10 7h1v1h-1z"/><path fill="hsl(0, 0%, 0%)" d="M11 7h1v1h-1z"/><path fill="hsl(0, 0%, 60%)" d="M12 7h1v1h-1z"/><path fill="hsl(105, 69%, 30%)" d="M13 7h1v1h-1zM14 7h1v1h-1z"/><path fill="hsl(0, 0%, 0%)" d="M15 7h1v1h-1zM16 7h1v1h-1z"/><path fill="url(#prefix__background2)" d="M17 7h1v1h-1zM18 7h1v1h-1zM19 7h1v1h-1zM0 8h1v1H0zM1 8h1v1H1zM2 8h1v1H2z"/><path fill="hsl(0, 0%, 0%)" d="M3 8h1v1H3z"/><path fill="hsl(105, 69%, 30%)" d="M4 8h1v1H4z"/><path fill="url(#prefix__background5)" d="M5 8h1v1H5zM6 8h1v1H6z"/><path fill="hsl(105, 69%, 30%)" d="M7 8h1v1H7zM8 8h1v1H8zM9 8h1v1H9z"/><path fill="url(#prefix__background5)" d="M10 8h1v1h-1zM11 8h1v1h-1z"/><path fill="hsl(105, 69%, 30%)" d="M12 8h1v1h-1zM13 8h1v1h-1zM14 8h1v1h-1z"/><path fill="hsl(0, 0%, 0%)" d="M15 8h1v1h-1z"/><path fill="url(#prefix__background2)" d="M16 8h1v1h-1zM17 8h1v1h-1zM18 8h1v1h-1zM19 8h1v1h-1zM0 9h1v1H0zM1 9h1v1H1zM2 9h1v1H2z"/><path fill="hsl(0, 0%, 0%)" d="M3 9h1v1H3z"/><path fill="hsl(105, 69%, 30%)" d="M4 9h1v1H4zM5 9h1v1H5zM6 9h1v1H6zM7 9h1v1H7zM8 9h1v1H8zM9 9h1v1H9zM10 9h1v1h-1zM11 9h1v1h-1zM12 9h1v1h-1zM13 9h1v1h-1zM14 9h1v1h-1z"/><path fill="hsl(0, 0%, 0%)" d="M15 9h1v1h-1zM16 9h1v1h-1z"/><path fill="url(#prefix__background2)" d="M17 9h1v1h-1zM18 9h1v1h-1zM19 9h1v1h-1z"/><path fill="url(#prefix__background3)" d="M0 10h1v1H0zM1 10h1v1H1zM2 10h1v1H2z"/><path fill="hsl(0, 0%, 0%)" d="M3 10h1v1H3z"/><path fill="hsl(105, 69%, 30%)" d="M4 10h1v1H4zM5 10h1v1H5zM6 10h1v1H6zM7 10h1v1H7zM8 10h1v1H8zM9 10h1v1H9zM10 10h1v1h-1zM11 10h1v1h-1zM12 10h1v1h-1zM13 10h1v1h-1zM14 10h1v1h-1z"/><path fill="hsl(0, 0%, 0%)" d="M15 10h1v1h-1z"/><path fill="url(#prefix__background4)" d="M16 10h1v1h-1z"/><path fill="hsl(0, 0%, 0%)" d="M17 10h1v1h-1z"/><path fill="url(#prefix__background3)" d="M18 10h1v1h-1zM19 10h1v1h-1zM0 11h1v1H0zM1 11h1v1H1zM2 11h1v1H2z"/><path fill="hsl(0, 0%, 0%)" d="M3 11h1v1H3z"/><path fill="hsl(105, 69%, 30%)" d="M4 11h1v1H4zM5 11h1v1H5zM6 11h1v1H6zM7 11h1v1H7z"/><path fill="hsl(0, 0%, 0%)" d="M8 11h1v1H8zM9 11h1v1H9zM10 11h1v1h-1z"/><path fill="hsl(105, 69%, 30%)" d="M11 11h1v1h-1zM12 11h1v1h-1z"/><path fill="hsl(105, 69%, 30%)" d="M12 11h1v1h-1zM13 11h1v1h-1zM14 11h1v1h-1z"/><path fill="hsl(0, 0%, 0%)" d="M15 11h1v1h-1z"/><path fill="url(#prefix__background4)" d="M16 11h1v1h-1z"/><path fill="hsl(0, 0%, 0%)" d="M17 11h1v1h-1z"/><path fill="url(#prefix__background3)" d="M18 11h1v1h-1zM19 11h1v1h-1zM0 12h1v1H0zM1 12h1v1H1zM2 12h1v1H2zM3 12h1v1H3z"/><path fill="hsl(0, 0%, 0%)" d="M4 12h1v1H4z"/><path fill="hsl(105, 69%, 30%)" d="M5 12h1v1H5zM6 12h1v1H6zM7 12h1v1H7zM8 12h1v1H8zM9 12h1v1H9zM10 12h1v1h-1zM11 12h1v1h-1zM12 12h1v1h-1zM13 12h1v1h-1z"/><path fill="hsl(0, 0%, 0%)" d="M14 12h1v1h-1z"/><path fill="url(#prefix__background3)" d="M15 12h1v1h-1z"/><path fill="hsl(0, 0%, 0%)" d="M16 12h1v1h-1z"/><path fill="url(#prefix__background3)" d="M17 12h1v1h-1zM18 12h1v1h-1zM19 12h1v1h-1zM0 13h1v1H0zM1 13h1v1H1zM2 13h1v1H2zM3 13h1v1H3zM4 13h1v1H4z"/><path fill="hsl(0, 0%, 0%)" d="M5 13h1v1H5zM6 13h1v1H6z"/><path fill="hsl(105, 69%, 30%)" d="M7 13h1v1H7zM8 13h1v1H8zM9 13h1v1H9zM10 13h1v1h-1zM11 13h1v1h-1z"/><path fill="hsl(0, 0%, 0%)" d="M12 13h1v1h-1zM13 13h1v1h-1z"/><path fill="url(#prefix__background3)" d="M14 13h1v1h-1zM15 13h1v1h-1zM16 13h1v1h-1zM17 13h1v1h-1zM18 13h1v1h-1zM19 13h1v1h-1zM0 14h1v1H0zM1 14h1v1H1zM2 14h1v1H2zM3 14h1v1H3zM4 14h1v1H4zM5 14h1v1H5z"/><path fill="hsl(0, 0%, 0%)" d="M6 14h1v1H6zM7 14h1v1H7zM8 14h1v1H8zM9 14h1v1H9zM10 14h1v1h-1zM11 14h1v1h-1zM12 14h1v1h-1z"/><path fill="url(#prefix__background3)" d="M13 14h1v1h-1zM14 14h1v1h-1zM15 14h1v1h-1zM16 14h1v1h-1zM17 14h1v1h-1zM18 14h1v1h-1zM19 14h1v1h-1zM0 15h1v1H0zM1 15h1v1H1zM2 15h1v1H2zM3 15h1v1H3zM4 15h1v1H4zM5 15h1v1H5z"/><path fill="hsl(0, 0%, 0%)" d="M6 15h1v1H6z"/><path fill="hsl(105, 69%, 30%)" d="M7 15h1v1H7zM8 15h1v1H8zM9 15h1v1H9zM10 15h1v1h-1zM11 15h1v1h-1z"/><path fill="hsl(0, 0%, 0%)" d="M12 15h1v1h-1zM13 15h1v1h-1zM14 15h1v1h-1z"/><path fill="url(#prefix__background3)" d="M15 15h1v1h-1zM16 15h1v1h-1zM17 15h1v1h-1zM18 15h1v1h-1zM19 15h1v1h-1zM0 16h1v1H0zM1 16h1v1H1zM2 16h1v1H2zM3 16h1v1H3zM4 16h1v1H4z"/><path fill="hsl(0, 0%, 0%)" d="M5 16h1v1H5z"/><path fill="hsl(105, 69%, 30%)" d="M6 16h1v1H6z"/><path fill="hsl(0, 0%, 0%)" d="M7 16h1v1H7zM8 16h1v1H8z"/><path fill="hsl(105, 69%, 30%)" d="M9 16h1v1H9zM10 16h1v1h-1z"/><path fill="hsl(0, 0%, 0%)" d="M11 16h1v1h-1z"/><path fill="hsl(105, 69%, 30%)" d="M12 16h1v1h-1zM13 16h1v1h-1zM14 16h1v1h-1z"/><path fill="hsl(0, 0%, 0%)" d="M15 16h1v1h-1z"/><path fill="url(#prefix__background3)" d="M16 16h1v1h-1zM17 16h1v1h-1zM18 16h1v1h-1zM19 16h1v1h-1zM0 17h1v1H0zM1 17h1v1H1zM2 17h1v1H2zM3 17h1v1H3zM4 17h1v1H4z"/><path fill="hsl(0, 0%, 0%)" d="M5 17h1v1H5z"/><path fill="hsl(105, 69%, 30%)" d="M6 17h1v1H6z"/><path fill="url(#prefix__background4)" d="M7 17h1v1H7z"/><path fill="hsl(0, 0%, 0%)" d="M8 17h1v1H8z"/><path fill="url(#prefix__background4)" d="M9 17h1v1H9z"/><path fill="hsl(105, 69%, 30%)" d="M10 17h1v1h-1z"/><path fill="hsl(0, 0%, 0%)" d="M11 17h1v1h-1z"/><path fill="url(#prefix__background4)" d="M12 17h1v1h-1z"/><path fill="hsl(105, 69%, 30%)" d="M13 17h1v1h-1z"/><path fill="hsl(0, 0%, 0%)" d="M14 17h1v1h-1z"/><path fill="hsl(105, 69%, 30%)" d="M15 17h1v1h-1z"/><path fill="hsl(0, 0%, 0%)" d="M16 17h1v1h-1z"/><path fill="url(#prefix__background3)" d="M17 17h1v1h-1zM18 17h1v1h-1zM19 17h1v1h-1zM0 18h1v1H0zM1 18h1v1H1zM2 18h1v1H2zM3 18h1v1H3zM4 18h1v1H4zM5 18h1v1H5z"/><path fill="hsl(0, 0%, 0%)" d="M6 18h1v1H6zM7 18h1v1H7z"/><path fill="url(#prefix__background3)" d="M8 18h1v1H8z"/><path fill="hsl(0, 0%, 0%)" d="M9 18h1v1H9zM10 18h1v1h-1z"/><path fill="url(#prefix__background3)" d="M11 18h1v1h-1z"/><path fill="hsl(0, 0%, 0%)" d="M12 18h1v1h-1zM13 18h1v1h-1z"/><path fill="url(#prefix__background3)" d="M14 18h1v1h-1z"/><path fill="hsl(0, 0%, 0%)" d="M15 18h1v1h-1zM16 18h1v1h-1z"/><path fill="url(#prefix__background3)" d="M17 18h1v1h-1zM18 18h1v1h-1zM19 18h1v1h-1zM0 19h1v1H0zM1 19h1v1H1zM2 19h1v1H2zM3 19h1v1H3zM4 19h1v1H4zM5 19h1v1H5zM6 19h1v1H6zM7 19h1v1H7zM8 19h1v1H8zM9 19h1v1H9zM10 19h1v1h-1zM11 19h1v1h-1zM12 19h1v1h-1zM13 19h1v1h-1zM14 19h1v1h-1zM15 19h1v1h-1zM16 19h1v1h-1zM17 19h1v1h-1zM18 19h1v1h-1zM19 19h1v1h-1z"/><text x="1" y="1.5" class="prefix__small">#142</text><text x="1.1" y="3" class="prefix__small">Toby</text><text x="1" y="21.3" class="prefix__small">Happiness: 107</text><text x="8" y="21.3" class="prefix__small">Energy: 190</text><text x="14" y="21.3" class="prefix__small">Cleanness: 190</text></svg>